# xmcd
#
# Track frame offsets:
#	150
#	9890
#	21667
#	32547
#	46120
#	56622
#	67642
#	75595
#	85647
#	97867
#	110920
#	119922
#	129225
#	142642
#	157347
#
# Disc length: 2268 seconds
#
# Revision: 0
# Processed by: cddbd v1.4PL0 Copyright (c) Steve Scherf et al.
#
# Submitted via: MusicManager v6.0.0.0
#
DISCID=b408da0f
DTITLE=George Jones - Sings Country Classics
DYEAR=1900
DGENRE=country
TTITLE0=If You've Got the Money I've Got the Time
TTITLE1=Heartaches By the Number
TTITLE2=Will the Circle Be Unbroken
TTITLE3=Cold Cold Heart
TTITLE4=Hey Good Lookin'
TTITLE5=I Can't Help It (If I'm Still in Love With You)
TTITLE6=Jambalaya
TTITLE7=I Walk the Line
TTITLE8=Oh Lonesome Me
TTITLE9=I Love You Because
TTITLE10=Singing the Blues
TTITLE11=Honky Tonkin'
TTITLE12=Almost Persuaded
TTITLE13=Family Bible
TTITLE14=Mom and Dad's Waltz
EXTD=
EXTT0=
EXTT1=
EXTT2=
EXTT3=
EXTT4=
EXTT5=
EXTT6=
EXTT7=
EXTT8=
EXTT9=
EXTT10=
EXTT11=
EXTT12=
EXTT13=
EXTT14=
PLAYORDER=
